<?xml version="1.0" encoding="utf-8"?>
<!-- Generator: Adobe Illustrator 24.2.3, SVG Export Plug-In . SVG Version: 6.00 Build 0)  -->
<svg version="1.1" id="Layer_1" xmlns="http://www.w3.org/2000/svg" xmlns:xlink="http://www.w3.org/1999/xlink" x="0px" y="0px"
	 viewBox="0 0 24 24" style="enable-background:new 0 0 24 24;" xml:space="preserve">
<style type="text/css">
	.st0{fill:#545379;}
</style>
<path class="st0" d="M20.2,0c1.4,0,2.5,1.1,2.6,2.5V24l-2.7-2.3l-1.5-1.3L17.1,19l0.7,2.2h-14c-1.4,0-2.5-1.1-2.5-2.5V2.5
	C1.2,1.1,2.3,0,3.7,0L20.2,0L20.2,0z M14.1,5.7L14.1,5.7l-0.2,0.2c2.1,0.6,3.1,1.5,3.1,1.5c-1.3-0.7-2.5-1-3.7-1.1
	c-0.9-0.1-1.7-0.1-2.5,0h-0.2c-0.5,0-1.5,0.2-2.8,0.7C7.3,7.2,7,7.4,7,7.4s1-1,3.2-1.5l-0.1-0.1c0,0-1.7-0.1-3.5,1.3
	c0,0-1.8,3.1-1.8,7c0,0,1,1.7,3.7,1.8c0,0,0.4-0.5,0.8-1c-1.5-0.5-2.1-1.4-2.1-1.4s0.1,0.1,0.3,0.2h0.1c0,0,0,0,0.1,0v0
	c0,0,0,0,0.1,0C8,13.8,8.4,13.9,8.6,14c0.5,0.2,1.1,0.4,1.8,0.5c0.9,0.1,2,0.2,3.2,0c0.6-0.1,1.2-0.3,1.8-0.5
	c0.4-0.2,0.9-0.4,1.4-0.7c0,0-0.6,0.9-2.2,1.4c0.3,0.5,0.8,1,0.8,1c2.7-0.1,3.8-1.8,3.9-1.7c0-3.9-1.8-7-1.8-7
	C15.8,5.7,14.3,5.7,14.1,5.7L14.1,5.7L14.1,5.7z M14.3,10.1c0.7,0,1.3,0.6,1.3,1.3c0,0.7-0.6,1.3-1.3,1.3c-0.7,0-1.3-0.6-1.3-1.3
	C13,10.7,13.6,10.1,14.3,10.1L14.3,10.1z M9.7,10.1c0.7,0,1.3,0.6,1.3,1.3c0,0.7-0.6,1.3-1.3,1.3s-1.3-0.6-1.3-1.3
	C8.5,10.7,9,10.1,9.7,10.1L9.7,10.1z"/>
</svg>
