<svg xmlns="http://www.w3.org/2000/svg" viewBox="0 0 252.44 142"><defs><style>.cls-1{fill:#2193c7;}.cls-2{fill:#7ac943;}.cls-3{fill:#563795;}.cls-4{fill:#fff;}</style></defs><g id="Layer_2" data-name="Layer 2"><g id="Layer_1-2" data-name="Layer 1"><polygon class="cls-1" points="123.2 0 0 142 129.25 142 252.44 0 123.2 0"/><path class="cls-2" d="M0,49.84V142L123.2,0H49.84A49.83,49.83,0,0,0,0,49.84Z"/><path class="cls-3" d="M129.25,142h73.66a49.53,49.53,0,0,0,49.53-49.54V0Z"/><path class="cls-4" d="M57.26,79.43q0,6.88-1,9.33a8.35,8.35,0,0,1-3.45,4,10.8,10.8,0,0,1-5.94,1.59A10.48,10.48,0,0,1,41.34,93,8.11,8.11,0,0,1,38,89.16a18,18,0,0,1-1-5.81c0-.72,0-1.47,0-2.29V36.72H23.93V77.6q0,12.25,2.38,17.41c.09.19.22.37.31.56a20,20,0,0,0,7.59,8,24.07,24.07,0,0,0,13,3.43,25.6,25.6,0,0,0,10-1.8,20.54,20.54,0,0,0,7.58-5.52A20.38,20.38,0,0,0,69.19,92q1.17-4,1.17-14.35V71.09H57.26Z"/><polygon class="cls-4" points="99.17 81.84 72.92 41.48 69.83 36.72 57.31 36.72 57.31 59.73 57.31 68.94 70.36 68.94 70.36 60.3 99.66 105.28 112.22 105.28 112.22 70.22 99.17 70.22 99.17 81.84"/><path class="cls-4" d="M127.92,48.72a23.36,23.36,0,0,1,6.79-1c6.29,0,11.29,2.61,16,6.79,3.8,3.36,5.62,9.53,5.62,9.53a29.15,29.15,0,0,1,2.48-9.34,48.66,48.66,0,0,1,3.94-6.2c-.67-.78-2.14-2.26-2.88-3a34,34,0,0,0-25-10.54,36.1,36.1,0,0,0-6.93.66,35.35,35.35,0,0,0-11,4.17,36.6,36.6,0,0,0-13.09,13.07c-2.37,3.93-4.64,10.39-4.64,15.09h13.18a22.47,22.47,0,0,1,6.34-13.6A21.32,21.32,0,0,1,127.92,48.72Z"/><path class="cls-4" d="M157.17,73.84s.07,6.83-6.41,13.82A20.66,20.66,0,0,1,135,94.38a22.62,22.62,0,0,1-7-1.23,26.8,26.8,0,0,1-8.72-4.86c-2.81-2.4-5.27-7.31-5.27-7.31l0,19.52a36.26,36.26,0,0,0,14,5.82,36.75,36.75,0,0,0,7,.69c9.82,0,17-3,25.07-10.4,9.73-8.91,10.25-22.81,10.25-22.81Z"/><path class="cls-4" d="M228.42,70.51H193.93V82.77h19.86a20,20,0,0,1-7.49,8.9,21.44,21.44,0,0,1-11.41,2.85,31.23,31.23,0,0,1-4.7-.33,22.41,22.41,0,0,1-11.83-5.67c-4.72-4-7-10.61-7-10.61a24.2,24.2,0,0,1-2.22,9,38.36,38.36,0,0,1-3.78,6.53s4.38,5.84,10,8.88a39.1,39.1,0,0,0,5.71,2.48A41,41,0,0,0,194.39,107a34.49,34.49,0,0,0,17.39-4.24,32.53,32.53,0,0,0,12.07-12.31,33.56,33.56,0,0,0,4.67-17.06Z"/><path class="cls-4" d="M157.27,71.29l13,0a20,20,0,0,1,2.87-11.73c6.27-10.94,16.24-11.76,20.9-11.76q11.61,0,20.34,9.23l9.19-9.09a38.49,38.49,0,0,0-12.86-9.6A42.45,42.45,0,0,0,194,35C167,35,159.74,56,158.23,62A27.63,27.63,0,0,0,157.27,71.29Z"/></g></g></svg>